PathFileType	4	(X/Y/Z)	./resultDataOpenSim/trcMotMarkerGrf/sub10/qtm-02-08.trc
DataRate	CameraRate	NumFrames	NumMarkers	Units	OrigDataRate	OrigDataStartFrame	OrigNumFrames
250.000000	250.000000	6	24	m	250.000000	414	473
Frame#	Time	L.Toe.Tip			R.Toe.Tip			L.Ankle.Lat			R.Ankle.Lat			L.Ankle.Med			R.Ankle.Med			L.Heel			R.Heel			L.Knee.Lat			R.Knee.Lat			L.Knee.Med			R.Knee.Med			L.Thigh.Upper			R.Thigh.Upper			L.ASIS			R.ASIS			V.Sacral			L.Acromium			R.Acromium			C7			L.Elbow			R.Elbow			L.Wrist.Lat			R.Wrist.Lat
		X1	Y1	Z1	X2	Y2	Z2	X3	Y3	Z3	X4	Y4	Z4	X5	Y5	Z5	X6	Y6	Z6	X7	Y7	Z7	X8	Y8	Z8	X9	Y9	Z9	X10	Y10	Z10	X11	Y11	Z11	X12	Y12	Z12	X13	Y13	Z13	X14	Y14	Z14	X15	Y15	Z15	X16	Y16	Z16	X17	Y17	Z17	X18	Y18	Z18	X19	Y19	Z19	X20	Y20	Z20	X21	Y21	Z21	X22	Y22	Z22	X23	Y23	Z23	X24	Y24	Z24

414	1.652	1.594107	0.13435512	-0.10366661	0.89592385	0.038154614	0.049444842	1.4683199	0.099542845	-0.15199457	0.75836414	0.077685686	0.077669369	1.4602926	0.1174363	-0.072468846	0.78911003	0.099375596	-0.0046630641	1.4225448	0.040895876	-0.11528007	0.70606761	0.063666277	0.028072002	1.3113628	0.46095832	-0.16084533	0.93480951	0.44132197	0.12335423	1.3108977	0.42563009	-0.043280111	0.96590203	0.4375235	-0.0028998563	1.1661164	0.81005261	-0.19786038	1.0259639	0.84393824	0.16910307	1.1960752	0.92127375	-0.11554667	1.1263946	0.92803758	0.12558863	0.9660519	0.92623165	-0.06065723	1.0788247	1.3972771	-0.16736565	1.081616	1.3902515	0.1548985	0.99234109	1.415549	-0.010112536	0.90586787	1.1099846	-0.23662125	1.1515813	1.046791	0.24981162	0.93379521	0.87250185	-0.26635226	1.3918344	0.9803646	0.21757324
415	1.656	1.6021117	0.13447617	-0.10463656	0.89603233	0.038148455	0.049451338	1.4763705	0.099308361	-0.1524105	0.75903984	0.07891596	0.077815673	1.4686373	0.11750331	-0.072641996	0.7898366	0.10025442	-0.0045785947	1.4307464	0.040602626	-0.1158003	0.70651066	0.065406129	0.028318246	1.3196	0.46098962	-0.16093878	0.93904426	0.44076643	0.12294766	1.3185621	0.42545217	-0.043614723	0.97038448	0.43667367	-0.0032146583	1.1740747	0.80917609	-0.19776218	1.0309211	0.84300397	0.16817544	1.2028857	0.92005918	-0.11519148	1.1314619	0.92690563	0.12600093	0.97269919	0.92469187	-0.062116341	1.0850803	1.3960293	-0.16778983	1.0873687	1.3889106	0.15454125	0.99834312	1.4143726	-0.010698478	0.91125262	1.1091361	-0.23649491	1.1590951	1.0457029	0.24873892	0.93836342	0.87178702	-0.26683008	1.3996302	0.9805282	0.21538418
416	1.66	1.6095505	0.13440384	-0.1058546	0.89615734	0.038150372	0.049460144	1.4837924	0.098855239	-0.15281717	0.75979246	0.080236708	0.077992812	1.4761882	0.11743848	-0.072802595	0.79061789	0.101206	-0.0044586004	1.4382609	0.04017564	-0.11644207	0.70700322	0.067268916	0.028616339	1.3278015	0.46100412	-0.16100251	0.94338103	0.44020238	0.12253102	1.3264492	0.42543429	-0.043886075	0.97498212	0.43581888	-0.0035217722	1.1819591	0.80846114	-0.19768437	1.0359882	0.84209328	0.16720969	1.2097108	0.91888644	-0.11488094	1.1367387	0.92576846	0.12629967	0.97991602	0.9231818	-0.06354983	1.0913449	1.394825	-0.1682295	1.0931118	1.3875983	0.15416038	1.0043665	1.4132204	-0.011300888	0.91669953	1.1082847	-0.23638949	1.1664836	1.0446655	0.24757695	0.9430667	0.871096	-0.26734942	1.4073067	0.98064089	0.21319136
417	1.664	1.6164336	0.13393589	-0.10714168	0.89630041	0.038160743	0.049470509	1.4906069	0.098167203	-0.15320127	0.76061544	0.081645329	0.078207695	1.4830969	0.11709537	-0.072971724	0.7914589	0.10223367	-0.0042996897	1.4450795	0.039604855	-0.11711319	0.70755641	0.069253916	0.028967375	1.3359667	0.46101557	-0.16104931	0.94782204	0.43962534	0.12210836	1.3345664	0.42554546	-0.044072723	0.9796964	0.43495726	-0.0038247181	1.1897337	0.80790488	-0.19765066	1.0411787	0.84119509	0.16621649	1.2165625	0.91777659	-0.11461672	1.1421593	0.92463144	0.12652486	0.98753719	0.92181053	-0.065042059	1.0976288	1.3936619	-0.16868567	1.0988525	1.3863222	0.15375207	1.0104022	1.4120958	-0.011936915	0.92219402	1.1074721	-0.2362332	1.1738565	1.0437226	0.24643206	0.94789813	0.87042304	-0.26791015	1.4148584	0.98069829	0.21099099
418	1.668	1.6227865	0.13285042	-0.10827989	0.89646513	0.038176285	0.049482439	1.4968344	0.097234394	-0.15354161	0.76146545	0.083149496	0.078484199	1.4895009	0.11633587	-0.073172538	0.79236747	0.10334118	-0.0041012405	1.451211	0.038878835	-0.11769195	0.70818429	0.071361001	0.029365038	1.344081	0.46102581	-0.1610872	0.95236978	0.43903878	0.12168052	1.3428887	0.42576123	-0.044166409	0.98452814	0.43408625	-0.0041229047	1.1973748	0.80749717	-0.197686	1.0465126	0.84029846	0.1652204	1.2234477	0.91674669	-0.11439953	1.1476934	0.92350166	0.12669899	0.99525579	0.92062226	-0.066526547	1.103933	1.392537	-0.16915306	1.1045946	1.3850992	0.15331779	1.016441	1.4110036	-0.012618914	0.92778311	1.1067498	-0.23593909	1.181368	1.0429398	0.24544293	0.95286126	0.86976651	-0.26850792	1.4222888	0.98069906	0.20878014
419	1.672	1.6286576	0.13109662	-0.10922227	0.89665643	0.038193498	0.049498056	1.5024957	0.096068044	-0.1538177	0.76231748	0.084763249	0.078836607	1.4954611	0.1151838	-0.073385175	0.79335341	0.10453149	-0.0038674232	1.4566935	0.037996799	-0.11810551	0.70889637	0.073595011	0.029798648	1.3521268	0.46102182	-0.1611177	0.95702623	0.43845006	0.12124426	1.3513603	0.42606131	-0.044179718	0.9894882	0.43320683	-0.004410189	1.2048689	0.80722083	-0.19780554	1.0520007	0.83939285	0.1642374	1.23037	0.91580523	-0.11423382	1.1533324	0.92238224	0.12682968	1.0027609	0.919677	-0.067903618	1.1102458	1.3914526	-0.16962803	1.1103347	1.3839402	0.15286138	1.0224798	1.4099473	-0.013336889	0.93353646	1.1061255	-0.23543509	1.1889882	1.0422872	0.24459109	0.95796213	0.86912945	-0.26913872	1.4296084	0.98064397	0.20656262
